<?xml version="1.0" encoding="utf-8"?>
<!-- Generator: Adobe Illustrator 19.0.0, SVG Export Plug-In . SVG Version: 6.00 Build 0)  -->
<svg version="1.1" id="layer" xmlns="http://www.w3.org/2000/svg" xmlns:xlink="http://www.w3.org/1999/xlink" x="0px" y="0px"
	 viewBox="-153 -46 652 652" style="enable-background:new -153 -46 652 652;" xml:space="preserve">
<style type="text/css">
	.st0{fill:#003873;}
	.st1{fill:#A68238;}
</style>
<path class="st0" d="M-81.9,239.2c0,0,4.1,0.2,6.5,2.1c2.3,2,4.1,5.3,4.1,5.3s1.4-3.2,3.8-4.8c2.3-1.8,6.1-2.5,6.1-2.5h42.1
	l8.3,12.3h-37.8c0,0-2.6,0.1-6.6,2.4c-2.1,1.2-3.7,3.3-3.7,3.3s-0.3,1-0.8,1.5c-0.4,0.6-0.8,1-1.3,1.2c-0.6,0.2-0.4,0.1-0.4,0.1
	h-19.7c0,0-0.8-0.3-1.2-1c-0.4-0.7-0.1-0.4-0.6-1c-0.3-0.5-1.1-2-4.1-4c-3.1-2-6.1-2.2-6.1-2.2h-38.4l8.4-12.7H-81.9z M-111.6,256.5
	v62.7c0,0,0.2,5.5,4.9,13c4.6,7.5,11.4,10.9,11.4,10.9l5.3-8.3c0,0-4.6-2.8-8.2-8.1c-3.4-5.3-3.4-9.8-3.4-9.8v-60.5H-111.6z
	 M-40.5,256.3v60.5c0,0-0.8,6.1-3.6,10.4c-2.9,4.4-7.6,8-7.6,8l5.1,8.2c0,0,7.7-5.6,11.5-11.6c3.8-6,4.7-14.9,4.7-14.9v-60.5H-40.5z
	 M-127.4,256.5v63c0,0,0.7,9.7,6.7,19.9c6.1,10.2,17.1,17.2,17.1,17.2l5.2-8.3c0,0-7.1-3.8-12.7-12.4c-5.8-8.7-6.1-16.7-6.1-16.7
	v-62.7H-127.4z M-25.1,256.3v61.9c0,0-0.1,7.9-6,17.1c-5.9,9.2-12.6,13-12.6,13l5,8.4c0,0,10.1-6.4,16.6-16.6
	c6.3-10.2,7.1-22,7.1-22v-61.9H-25.1z"/>
<path class="st1" d="M-96.5,219.7c-0.6-0.9-1.2-3.1-1.2-3.1h53.3c0,0-0.3,2-1.2,3.1H-96.5z M-48.7,224.3c1-0.9,2-2.7,2-2.7h-48.8
	c0,0,0.5,1.3,1.8,2.7H-48.7z M-52.5,228.4c1.2-0.7,2.2-2,2.2-2h-41.7c0,0,1,1.1,2,2H-52.5z M-57.4,232.2c1.2-0.5,2.5-1.6,2.5-1.6
	h-32.6c0,0,0,0.2,2.3,1.6H-57.4z M-81.4,234.6c0,0,3.4,2,10.2,2c6.7,0,11-2,11-2H-81.4z M-81.9,263.1v66.5c0,0-0.2,0.2-0.3,1.2
	c-0.1,1-0.8,1.7-0.8,1.7l-22.2,36.8h68l-22.2-37.6l-0.7-1.7l-0.2-1.8v-65h-8.3v67.5c0,0,0,1,0.3,1.8c0.2,0.8,0.7,2,0.7,2l13.7,22.5
	h-34.7l13.5-22.4c0,0,0.4-0.8,0.8-1.9c0.2-1,0.3-2,0.3-2v-67.6H-81.9z M-44.1,214.9c0,0,4.4-17.1-10.5-28.1c0,0-6.2-5.6-16.9-5.6
	c-10,0-16.2,5.7-16.2,5.7c-13.7,9.3-10.3,27.9-10.3,27.9H-44.1z"/>
<path class="st0" d="M35.4,197v7.7h10.3C41.5,203.1,38,200.5,35.4,197 M23.5,218.4H44v-3.7H23.5V218.4z M44,208.3H23.5v3.2H44V208.3
	z M22,204.8h9.5v-7.7C29.1,200.5,25.9,203.1,22,204.8 M47.9,205.7v18.1H44v-1.9H23.5v1.9h-3.9v-17.9c-0.7,0.3-1.9,0.7-3.5,1.3
	l-2-3.7c5.1-1.2,9.5-3.4,13.2-6.6H14.4v-3.5h17.1v-3.4c-6.3,0.2-10.7,0.3-13.5,0.3l-1.4-3.8c1.6,0.1,3.5,0.1,5.9,0.1
	c11.1,0,19.5-0.6,25.2-1.9l1.8,3.4c-3.8,0.8-8.5,1.4-14.1,1.9v3.5H53v3.5H39.6c3.2,3.1,7.8,5.2,13.8,6.4l-1.8,3.8
	c-0.6-0.3-1.2-0.5-1.8-0.7C49,206.3,48.4,206,47.9,205.7 M87.1,196.8h7.6v-4.1h-7.6V196.8z M88.1,200.3c-0.6,1.4-1.4,2.7-2.5,3.8
	h10.6c-0.9-1-1.8-2.3-2.5-3.8H88.1z M84.9,211.5h9.6v-4.1h-9.6V211.5z M77.8,189.2h5.6v-4.3h3.8v4.3h7.6v-4.3h3.8v4.3h6.9v3.3h-6.9
	v4.3h7.5v3.5h-8c1.1,2.3,3.9,4.5,8.4,6.7l-1.8,3.7c-2.6-1.5-4.7-3-6.3-4.5v8.6H84.9v2.7c0,1,0.5,1.5,1.5,1.5h12.4
	c1.2,0,1.9-0.4,2.1-1.3c0.2-0.9,0.4-2.4,0.6-4.6l4,1.5c-0.4,3.9-1,6.2-1.8,7c-0.7,0.8-2.2,1.1-4.3,1.1H85.9c-1.8,0-3-0.3-3.8-1
	c-0.7-0.7-1-2-1-3.9v-9.3c-0.7,0.6-2,1.5-3.8,2.6l-2.4-3.5c4.6-2.1,7.5-4.4,8.8-7.1h-6.7v-3.5h6.4v-4.2h-5.6v-2.3l-2.5,3.2
	c-2.3-2.1-4.4-3.7-6.2-4.9l2.8-3.1c2.4,1.5,4.4,2.9,6,4.1V189.2z M73.7,204.1c-2.3-1.9-4.2-3.4-5.8-4.5l2.5-3.1c2,1.1,4,2.4,6.2,4
	L73.7,204.1z M76.3,210.9c-1.1,4.5-2.9,8.7-5.3,12.4l-3.3-3.4c2.4-3.5,4.1-7.2,5-11.1L76.3,210.9z M148.4,195.8
	c-3.1-2.5-5.6-4.3-7.5-5.5l2.5-2.8c1.8,1,4.4,2.7,7.6,5.1L148.4,195.8z M147.6,206c-2.9-2.4-5.4-4.2-7.6-5.6l2.5-2.8
	c2.1,1.1,4.7,2.8,7.7,5.1L147.6,206z M138.5,214.5v-3.9l14-2.1v-24h3.9V208l3.8-0.6v3.8l-3.8,0.6v12h-3.9v-11.5L138.5,214.5z
	 M128.9,190.6c-1.5,0.3-3.6,0.5-6.5,0.7l-0.9-3.5c6.2-0.3,11.6-1.3,16.1-3l1.4,3.4c-2,0.7-4.1,1.3-6.3,1.7v5.9h6.3v3.6h-6.3v0.4
	c3.1,2.9,5.5,5.2,7.1,6.9l-2.3,3.6c-0.8-1.2-1.7-2.2-2.5-3.2c-0.7-0.9-1.5-1.8-2.2-2.8v19.4l-3.8,0.2v-17.1c-1.1,2.7-3,5.8-5.7,9.3
	l-2.3-3.8c3.5-4,6.1-8.3,7.9-12.9h-7.6v-3.6h7.8V190.6z M189.9,196.9H185v7.4c2.2-0.7,3.9-1.3,4.9-1.8v4.1c-0.9,0.5-2.5,1.1-4.9,1.9
	v10.2c0,2-0.3,3.3-0.8,3.9c-0.6,0.7-1.9,1-4,1h-3.3l-1-4.2l3.6,0.1c0.9,0,1.4-0.5,1.4-1.4v-8.5c-2.4,0.6-4.2,1.1-5.6,1.4l-1-4.5
	c2.4-0.3,4.6-0.7,6.6-1.2v-8.4h-6.2v-3.8h6.2v-8.6h4.1v8.6h4.9v-2.7h9v-5.9h4.1v5.9h9.8v3.8h-9.8v5.6h8.4v3.5
	c-0.4,1.5-1.3,3.5-2.7,5.9c-1.5,2.4-3,4.3-4.6,5.7c2.8,2.3,5.9,3.9,9.4,4.9l-2.1,3.9c-3.7-1.2-7.1-3.3-10.3-6.2
	c-4.4,3.4-8.6,5.5-12.6,6.3l-2.3-3.8c4-0.9,8-2.7,12-5.4c-2.1-2.2-4.2-5.1-6.3-8.9l3.5-1.4c1.9,3.4,3.8,6.1,5.7,8
	c2.8-2.3,4.9-5.1,6.1-8.6h-16.6v-3.8h8.3v-5.6h-9L189.9,196.9z M252.7,199.4c0.6,3.4,2.1,7,4.5,10.7c2.4,3.7,5.6,7,9.8,9.7l-3.2,3.8
	c-7.5-4.9-12.7-13-15.4-24.2h-0.7c-1.9,10-7.5,18.1-16.8,24.3l-3.2-4c3.9-2.2,7.3-5.2,10.2-8.9c2.8-3.7,4.5-7.5,5.2-11.4h-14.4V195
	h15.1c0.4-2.5,0.5-6,0.5-10.5h4.4c0,4.8-0.1,8.3-0.3,10.5H266v4.4L252.7,199.4z M301.7,198.9c-1.3,0.9-2.9,1.7-4.9,2.3l-1.8-2.8
	c1.9-0.4,3.4-0.9,4.3-1.5c-0.6-0.4-1.5-1.1-2.8-2l2.2-1.8c0.5,0.4,1,0.7,1.5,0.9c0.5,0.4,1.1,0.8,1.8,1.3c0.8-0.5,1.8-1.4,2.9-2.6
	l2.2,1.9c-1,1-2,1.9-2.8,2.5c0.8,0.7,1.6,1.4,2.4,2.2l-2.7,2C302.6,199.8,301.9,198.9,301.7,198.9 M301.5,190.4
	c-1.4,0.9-3,1.7-4.9,2.5l-2.1-2.8c2.3-0.6,3.9-1.2,4.6-1.7c-0.7-0.6-1.6-1.2-2.8-2l2.3-2c1.1,0.7,2.2,1.5,3.3,2.3
	c1.2-0.8,2-1.6,2.5-2.3l2.1,1.9c-0.6,0.8-1.4,1.6-2.5,2.3c0.6,0.5,1.3,1.2,2.2,2.2l-2.6,1.9C302.5,191.2,301.8,190.4,301.5,190.4
	 M315.9,205.4h-30.1v6.1h-3.7v-9.4h2.1l-0.5-16c3.6-0.1,6.7-0.5,9.2-1.2l1.8,3.1c-1.6,0.5-4,0.9-7.4,1.1l0.1,2.1h6.5v2.8h-6.4l0,2.4
	h6.3v2.9h-6.3l0.1,2.8h26.1l0-2.8h-5.8v-2.9h6l0.1-2.4h-6.1v-2.8h6.1l0-2.3h-6.6v-3.3h10.3l-0.5,16.5h2.2v9.4h-3.8V205.4z
	 M312.2,207.2v3c-2.4,1.3-5.5,2.5-9.1,3.6h17.3v3.4h-17.3v1.7c0,3-1.3,4.5-3.8,4.5h-6.1l-1-3.4l5.7,0.2c0.8,0,1.3-0.4,1.3-1.3v-1.7
	h-18.1v-3.4h18.1v-1.8c1.9-0.3,4.4-0.9,7.3-1.8H289v-3.1H312.2z"/>
<path class="st0" d="M26.3,270.7h-3.8v-27.2h-7.3V240h18.4v3.5h-7.3V270.7z M40.5,252.4V240h-3.8v30.7h3.8V256h14.6v14.7H59V240
	h-3.8v12.4H40.5z M64.9,270.7h16.5v-3.5H68.7v-11.6H81v-3.5H68.7v-8.6h12.6V240H64.9V270.7z M102.2,252.4V240h-3.8v30.7h3.8V256
	h14.6v14.7h3.8V240h-3.8v12.4H102.2z M152.7,255.4c0,7-5.6,12.4-12.2,12.4c-6.6,0-12.2-5.4-12.2-12.4c0-6.7,5-12.4,12.2-12.4
	C147.6,243,152.7,248.6,152.7,255.4 M156.5,255.4c0-8.8-7.3-16-16.1-16c-8.8,0-16.1,7.2-16.1,16c0,9.1,7.2,16,16.1,16
	C149.3,271.4,156.5,264.5,156.5,255.4 M160.2,270.7h3.8v-22.9l23,24.1V240h-3.8v22.7l-23-24.1V270.7z M208.7,255.3v3.5h7.9
	c-0.2,5-5.3,9.1-10,9.1c-6.6,0-11.9-6.1-11.9-12.5c0-6.9,5.4-12.4,12.2-12.4c3.7,0,7.4,2,9.6,5l2.7-2.6c-3-3.8-7.7-5.9-12.5-5.9
	c-8.8,0-15.9,7.2-15.9,16.1c0,8.5,6.9,15.9,15.5,15.9c8.6,0,14.5-6.5,14.5-14.9v-1.2H208.7z M241,253.3V240h-3.8v30.7h3.8v-12.8
	l1.5-1.5l11.6,14.3h5.2l-14-16.9L259,240h-5L241,253.3z M288.2,255.4c0,7-5.6,12.4-12.2,12.4c-6.6,0-12.2-5.4-12.2-12.4
	c0-6.7,5-12.4,12.2-12.4C283.1,243,288.2,248.6,288.2,255.4 M292,255.4c0-8.8-7.3-16-16.1-16c-8.8,0-16.1,7.2-16.1,16
	c0,9.1,7.2,16,16.1,16C284.8,271.4,292,264.5,292,255.4 M295.7,270.7h3.8v-22.9l23,24.1V240h-3.8v22.7l-23-24.1V270.7z M344.2,255.3
	v3.5h7.9c-0.2,5-5.3,9.1-10,9.1c-6.6,0-11.9-6.1-11.9-12.5c0-6.9,5.4-12.4,12.2-12.4c3.7,0,7.4,2,9.6,5l2.7-2.6
	c-3-3.8-7.7-5.9-12.5-5.9c-8.8,0-15.9,7.2-15.9,16.1c0,8.5,6.9,15.9,15.5,15.9c8.6,0,14.5-6.5,14.5-14.9v-1.2H344.2z M17.6,288.8
	v19.4c0,6.7,4.2,11.9,11.2,11.9c7,0,11.2-5.2,11.2-11.9v-19.4h-3.8v18.1c0,5-1.5,9.6-7.4,9.6c-5.9,0-7.4-4.6-7.4-9.6v-18.1H17.6z
	 M45.3,319.5h3.8v-22.9l23,24.1v-31.9h-3.8v22.7l-23-24.1V319.5z M81.7,288.8h-3.8v30.7h3.8V288.8z M88.9,288.8h-4.2L98,321.1
	l13.3-32.3h-4.2L98,311.5L88.9,288.8z M114.3,319.5h16.5V316h-12.6v-11.6h12.3v-3.5h-12.3v-8.6h12.6v-3.5h-16.5V319.5z M139.7,292.2
	h1c3.8,0,8.3,0.7,8.3,5.5c0,4.9-4.2,5.6-8.1,5.6h-1.2V292.2z M145.3,306.2c4.4-0.5,7.4-4.2,7.4-8.6c0-2.9-1.5-5.8-4-7.3
	c-2.4-1.4-5.4-1.4-8.1-1.4h-4.6v30.7h3.8v-13h1.6l9,13h4.6L145.3,306.2z M175.1,292.8c-1.7-3-4.5-4.6-7.9-4.6c-4.6,0-9,3-9,7.9
	c0,4.3,3.2,6.3,6.7,7.8l2.1,0.9c2.6,1.1,5.3,2.5,5.3,5.8c0,3.2-2.4,6-5.7,6s-6-2.4-5.9-5.8l-3.9,0.8c0.7,4.9,4.5,8.6,9.5,8.6
	c5.5,0,9.8-4,9.8-9.6c0-5.1-3.3-7.5-7.6-9.2l-2.2-0.9c-1.9-0.7-4.3-2-4.3-4.4c0-2.7,2.7-4.4,5.1-4.4c2.3,0,3.8,1,4.9,2.9
	L175.1,292.8z M184.3,288.8h-3.8v30.7h3.8V288.8z M198.7,292.3h7.3v-3.5h-18.4v3.5h7.3v27.2h3.8V292.3z M216.3,306.2v13.3h3.8v-13.3
	l10-17.3h-4.4l-7.5,13.1l-7.5-13.1h-4.4L216.3,306.2z M271.5,304.2c0,7-5.6,12.4-12.2,12.4c-6.6,0-12.2-5.4-12.2-12.4
	c0-6.7,5-12.4,12.2-12.4C266.4,291.8,271.5,297.4,271.5,304.2 M275.3,304.2c0-8.8-7.3-16-16.1-16c-8.8,0-16.1,7.2-16.1,16
	c0,9.1,7.2,16,16.1,16C268.1,320.1,275.3,313.3,275.3,304.2 M294.2,292.3v-3.5h-14.9v30.7h3.8v-15h10.6v-3.5h-10.6v-8.6H294.2z
	 M327.9,292.8c-1.7-3-4.5-4.6-7.9-4.6c-4.6,0-9,3-9,7.9c0,4.3,3.2,6.3,6.7,7.8l2.1,0.9c2.7,1.1,5.3,2.5,5.3,5.8c0,3.2-2.4,6-5.7,6
	c-3.3,0-6-2.4-5.9-5.8l-3.9,0.8c0.7,4.9,4.5,8.6,9.5,8.6c5.5,0,9.8-4,9.8-9.6c0-5.1-3.3-7.5-7.6-9.2l-2.2-0.9
	c-1.9-0.7-4.3-2-4.3-4.4c0-2.7,2.7-4.4,5.1-4.4c2.3,0,3.8,1,4.9,2.9L327.9,292.8z M355.8,290.3c-2.3-1.4-5-2.1-7.7-2.1
	c-9,0-16.3,7.1-16.3,16.2c0,8.9,7.2,15.8,16,15.8c2.7,0,5.7-0.8,8.1-2.2v-4.5c-2.3,2-5.2,3.2-8.2,3.2c-6.8,0-12-5.7-12-12.5
	c0-6.8,5.3-12.5,12.1-12.5c2.9,0,5.9,1.1,8.1,3V290.3z M364.5,288.8h-3.8v30.7h3.8V288.8z M370.6,319.5h16.5V316h-12.6v-11.6h12.3
	v-3.5h-12.3v-8.6h12.6v-3.5h-16.5V319.5z M391.8,319.5h3.8v-22.9l23,24.1v-31.9h-3.8v22.7l-23-24.1V319.5z M446.9,290.3
	c-2.3-1.4-5-2.1-7.7-2.1c-9,0-16.3,7.1-16.3,16.2c0,8.9,7.2,15.8,16,15.8c2.7,0,5.7-0.8,8.1-2.2v-4.5c-2.3,2-5.2,3.2-8.2,3.2
	c-6.8,0-12-5.7-12-12.5c0-6.8,5.2-12.5,12.1-12.5c2.9,0,5.9,1.1,8.1,3V290.3z M451.8,319.5h16.5V316h-12.7v-11.6h12.3v-3.5h-12.3
	v-8.6h12.7v-3.5h-16.5V319.5z M34.9,357.1H24l5.4-12.4L34.9,357.1z M36.5,360.6l3.5,7.7h4.1l-14.6-32l-14.6,32h4.1l3.5-7.7H36.5z
	 M46.7,368.3h3.8v-22.9l23,24.1v-31.9h-3.8v22.7l-23-24.1V368.3z M82.9,341.1h1.3c7.8,0,14.6,2.9,14.6,11.8
	c0,8.9-6.8,11.8-14.6,11.8h-1.3V341.1z M79.1,368.3h6.2c9.7,0,17.3-5,17.3-15.5c0-10.2-7.8-15.2-17.2-15.2h-6.3V368.3z M127.3,341.1
	h7.3v-3.5h-18.4v3.5h7.3v27.2h3.8V341.1z M138,368.3h16.5v-3.5h-12.6v-11.6h12.3v-3.5h-12.3v-8.6h12.6v-3.5H138V368.3z M181.9,339
	c-2.3-1.4-5-2.1-7.7-2.1c-9,0-16.3,7.1-16.3,16.2c0,8.9,7.2,15.8,16,15.8c2.7,0,5.7-0.8,8.1-2.2v-4.5c-2.3,2-5.2,3.2-8.2,3.2
	c-6.8,0-12-5.7-12-12.5c0-6.8,5.2-12.5,12.1-12.5c2.9,0,5.9,1.1,8.1,3V339z M190.4,350v-12.4h-3.8v30.7h3.8v-14.7H205v14.7h3.8
	v-30.7H205V350H190.4z M214.4,368.3h3.8v-22.9l23,24.1v-31.9h-3.8v22.7l-23-24.1V368.3z M273.2,353c0,7-5.6,12.4-12.2,12.4
	c-6.6,0-12.2-5.4-12.2-12.4c0-6.7,5-12.4,12.2-12.4C268.2,340.6,273.2,346.2,273.2,353 M277,353c0-8.8-7.3-16-16.1-16
	c-8.8,0-16.1,7.2-16.1,16c0,9.1,7.2,16,16.1,16C269.8,368.9,277,362.1,277,353 M285,337.6h-3.8v30.7h13.1v-3.5H285V337.6z
	 M323.3,353c0,7-5.6,12.4-12.2,12.4c-6.6,0-12.2-5.4-12.2-12.4c0-6.7,5-12.4,12.2-12.4C318.3,340.6,323.3,346.2,323.3,353
	 M327.2,353c0-8.8-7.3-16-16.1-16c-8.8,0-16.1,7.2-16.1,16c0,9.1,7.2,16,16.1,16C320,368.9,327.2,362.1,327.2,353 M347.1,352.8v3.5
	h7.9c-0.2,5-5.3,9.1-10.1,9.1c-6.6,0-11.9-6.1-11.9-12.5c0-6.9,5.4-12.4,12.2-12.4c3.7,0,7.4,2,9.6,5l2.7-2.6
	c-3-3.8-7.7-5.9-12.5-5.9c-8.8,0-15.9,7.2-15.9,16.1c0,8.5,6.9,15.9,15.5,15.9c8.6,0,14.5-6.5,14.5-14.9v-1.2H347.1z M370.2,354.9
	v13.3h3.8v-13.3l10-17.3h-4.4l-7.5,13.1l-7.5-13.1h-4.4L370.2,354.9z"/>
</svg>
